<?xml version="1.0" encoding="utf-8"?>
<svg viewBox="-748.46 -81.898 510 168" xmlns="http://www.w3.org/2000/svg">
  <g id="g-1" featurekey="mugSzh-0" transform="matrix(1.944445, 0, 0, 1.944445, -766.990601, -103.928596)" fill="#39e991">
    <path xmlns="http://www.w3.org/2000/svg" d="M14.03,50.03l13.5,13.5l13.5-13.5l-13.5-13.5L14.03,50.03 M27.53,32.03l18,18l-18,18l-18-18L27.53,32.03" style="fill-rule: evenodd; clip-rule: evenodd;"/>
    <path xmlns="http://www.w3.org/2000/svg" d="M27.53,54.53l4.5-4.5l-4.5-4.5l-4.5,4.5L27.53,54.53 M18.53,50.03l9-9l9,9l-9,9L18.53,50.03" style="fill-rule: evenodd; clip-rule: evenodd;"/>
    <path xmlns="http://www.w3.org/2000/svg" d="M68.03,72.53l-18-18l-18,18l18,18L68.03,72.53 M72.53,72.53l-22.5,22.5l-22.5-22.5l22.5-22.5L72.53,72.53" style="fill-rule: evenodd; clip-rule: evenodd;"/>
    <path xmlns="http://www.w3.org/2000/svg" d="M59.03,72.53l-9-9l-9,9l9,9L59.03,72.53 M63.53,72.53l-13.5,13.5l-13.5-13.5l13.5-13.5L63.53,72.53" style="fill-rule: evenodd; clip-rule: evenodd;"/>
    <polyline xmlns="http://www.w3.org/2000/svg" points="54.53,72.53 50.03,77.03 45.53,72.53 50.03,68.03 54.53,72.53 " style="fill-rule: evenodd; clip-rule: evenodd;"/>
    <path xmlns="http://www.w3.org/2000/svg" d="M41.03,27.53l9,9l9-9l-9-9L41.03,27.53 M36.53,27.53l13.5-13.5l13.5,13.5l-13.5,13.5L36.53,27.53" style="fill-rule: evenodd; clip-rule: evenodd;"/>
    <polyline xmlns="http://www.w3.org/2000/svg" points="45.53,27.53 50.03,23.03 54.53,27.53 50.03,32.03 45.53,27.53 " style="fill-rule: evenodd; clip-rule: evenodd;"/>
    <path xmlns="http://www.w3.org/2000/svg" d="M72.53,45.53l-4.5,4.5l4.5,4.5l4.5-4.5L72.53,45.53 M81.53,50.03l-9,9l-9-9l9-9L81.53,50.03" style="fill-rule: evenodd; clip-rule: evenodd;"/>
  </g>
  <g transform="matrix(1, 0, 0, 1, -140.460007, -91)">
    <g id="g-2" featurekey="PPkF4s-0" transform="matrix(3.831837, 0, 0, 3.831837, -447.770081, 38.142113)" fill="#ffffff">
      <path d="M7.96 4.92 l8.02 15.08 l-3.46 0 l-1.16 -2.24 l-6.82 0 l-1.12 2.24 l-3.48 0 z M9.84 15.059999999999999 l-1.88 -3.82 l-1.86 3.82 l3.74 0 z M19.57 19.74 q-1.37 -0.54 -2.35 -1.83 t-0.98 -3.37 t0.99 -3.36 t2.37 -1.82 t2.62 -0.54 q1.44 0 2.74 0.64 t2.13 1.88 t0.87 2.94 q0 0.52 -0.02 0.9 t-0.04 0.48 l-8.68 0 q0.24 1.16 1.2 1.58 t1.8 0.42 q1.08 0 1.72 -0.39 t1.1 -0.89 l2.32 1.34 q-1.88 2.56 -5.14 2.56 q-1.28 0 -2.65 -0.54 z M20.18 12.05 q-0.78 0.61 -0.88 1.49 l5.5 0 q-0.06 -0.52 -0.4 -1 t-0.91 -0.79 t-1.29 -0.31 q-1.24 0 -2.02 0.61 z M34.08 16.08 q0 0.7 0.24 1.17 t1.12 0.47 q0.4 0 0.76 -0.04 l0 2.52 q-0.72 0.08 -1.34 0.08 q-1.28 0 -2.07 -0.21 t-1.23 -0.81 t-0.44 -1.72 l0 -6.1 l-1.34 0 l0 -2.62 l1.34 0 l0 -2.94 l2.96 0 l0 2.94 l2.2 0 l0 2.62 l-2.2 0 l0 4.64 z M47.830000000000005 10.02 q1.03 1.22 1.03 3.48 l0 6.5 l-3.04 0 l0 -6.5 q0 -1.18 -0.59 -1.7 t-1.55 -0.52 q-0.82 0 -1.48 0.65 t-0.62 2.25 l0 5.82 l-2.98 0 l0 -15.14 l2.98 0 l0 5.12 q0.54 -0.54 1.36 -0.86 t1.58 -0.32 q2.28 0 3.31 1.22 z M54.59 19.74 q-1.37 -0.54 -2.35 -1.83 t-0.98 -3.37 t0.99 -3.36 t2.37 -1.82 t2.62 -0.54 q1.44 0 2.74 0.64 t2.13 1.88 t0.87 2.94 q0 0.52 -0.02 0.9 t-0.04 0.48 l-8.68 0 q0.24 1.16 1.2 1.58 t1.8 0.42 q1.08 0 1.72 -0.39 t1.1 -0.89 l2.32 1.34 q-1.88 2.56 -5.14 2.56 q-1.28 0 -2.65 -0.54 z M55.2 12.05 q-0.78 0.61 -0.88 1.49 l5.5 0 q-0.06 -0.52 -0.4 -1 t-0.91 -0.79 t-1.29 -0.31 q-1.24 0 -2.02 0.61 z M70.64000000000001 11.87 q-0.86 0.21 -1.58 0.99 t-0.72 2.28 l0 4.86 l-2.98 0 l0 -11 l2.98 0 l0 1.46 q0.74 -0.98 1.81 -1.33 t1.95 -0.33 l0 2.92 q-0.6 -0.06 -1.46 0.15 z M76.68 7.369999999999999 q-0.48 0.47 -1.16 0.47 q-0.7 0 -1.19 -0.47 t-0.49 -1.15 q0 -0.66 0.49 -1.13 t1.19 -0.47 q0.68 0 1.16 0.47 t0.48 1.13 q0 0.68 -0.48 1.15 z M74.02000000000001 9.02 l3 0 l0 10.98 l-3 0 l0 -10.98 z M88.32000000000001 18.9 q-0.38 0.52 -1.31 0.93 t-2.03 0.41 q-1.7 0 -2.95 -0.76 t-1.91 -2.07 t-0.66 -2.91 t0.66 -2.91 t1.91 -2.07 t2.95 -0.76 q1.14 0 2.01 0.39 t1.33 0.99 l0 -1.14 l2.96 0 l0 11 l-2.96 0 l0 -1.1 z M87.62 12.25 q-0.82 -0.87 -2.2 -0.87 q-1.4 0 -2.21 0.87 t-0.81 2.25 q0 1.34 0.83 2.22 t2.19 0.88 q1.4 0 2.21 -0.83 t0.81 -2.27 q0 -1.38 -0.82 -2.25 z"/>
    </g>
    <g id="g-3" featurekey="uwAHB0-0" transform="matrix(0.288964, 0, 0, 0.288964, -448.450775, 121.430069)" fill="#39e991">
      <path d="M 10.63 16.462 C 11.517 16.929 12.2 17.559 12.68 18.352 C 13.16 19.145 13.4 20.029 13.4 21.002 C 13.4 21.975 13.177 22.849 12.73 23.622 C 12.283 24.395 11.613 25.005 10.72 25.452 C 9.827 25.899 8.747 26.122 7.48 26.122 L 4.72 26.122 L 4.72 30.382 L 1.56 30.382 L 1.56 15.762 L 7.5 15.762 C 8.7 15.762 9.743 15.995 10.63 16.462 L 10.63 16.462 Z M 9.64 22.682 C 10.027 22.215 10.22 21.655 10.22 21.002 C 10.22 20.575 10.12 20.172 9.92 19.792 C 9.72 19.412 9.423 19.102 9.03 18.862 C 8.637 18.622 8.167 18.502 7.62 18.502 L 4.72 18.502 L 4.72 23.382 L 7.94 23.382 C 8.687 23.382 9.253 23.149 9.64 22.682 L 9.64 22.682 Z M 29.668 29.642 C 28.468 28.962 27.515 28.039 26.808 26.872 C 26.101 25.705 25.748 24.435 25.748 23.062 C 25.748 21.702 26.101 20.439 26.808 19.272 C 27.515 18.105 28.468 17.182 29.668 16.502 C 30.868 15.822 32.181 15.482 33.608 15.482 C 35.035 15.482 36.355 15.822 37.568 16.502 C 38.781 17.182 39.741 18.105 40.448 19.272 C 41.155 20.439 41.508 21.702 41.508 23.062 C 41.508 24.435 41.155 25.705 40.448 26.872 C 39.741 28.039 38.781 28.962 37.568 29.642 C 36.355 30.322 35.035 30.662 33.608 30.662 C 32.181 30.662 30.868 30.322 29.668 29.642 L 29.668 29.642 Z M 31.248 19.012 C 30.528 19.445 29.955 20.022 29.528 20.742 C 29.101 21.462 28.888 22.235 28.888 23.062 C 28.888 23.889 29.101 24.665 29.528 25.392 C 29.955 26.119 30.528 26.702 31.248 27.142 C 31.968 27.582 32.755 27.802 33.608 27.802 C 34.461 27.802 35.251 27.582 35.978 27.142 C 36.705 26.702 37.278 26.119 37.698 25.392 C 38.118 24.665 38.328 23.889 38.328 23.062 C 38.328 22.235 38.118 21.462 37.698 20.742 C 37.278 20.022 36.705 19.445 35.978 19.012 C 35.251 18.579 34.461 18.362 33.608 18.362 C 32.755 18.362 31.968 18.579 31.248 19.012 L 31.248 19.012 Z M 67.456 30.922 L 63.276 22.242 L 59.056 30.922 L 53.216 15.782 L 56.616 15.782 L 59.436 23.362 L 63.276 15.402 L 67.116 23.362 L 69.996 15.782 L 73.356 15.782 L 67.456 30.922 Z M 89.604 21.762 L 96.604 21.762 L 96.604 24.522 L 89.604 24.522 L 89.604 27.642 L 97.524 27.642 L 97.524 30.382 L 86.444 30.382 L 86.444 15.762 L 97.524 15.762 L 97.524 18.502 L 89.604 18.502 L 89.604 21.762 Z M 111.672 30.382 L 111.672 15.762 L 118.172 15.762 C 119.212 15.762 120.132 15.975 120.932 16.402 C 121.732 16.829 122.352 17.429 122.792 18.202 C 123.232 18.975 123.452 19.855 123.452 20.842 C 123.452 21.895 123.185 22.835 122.652 23.662 C 122.119 24.489 121.392 25.095 120.472 25.482 C 121.419 26.682 122.679 28.315 124.252 30.382 L 120.472 30.382 C 119.619 29.315 118.452 27.795 116.972 25.822 L 114.812 25.822 L 114.812 30.382 L 111.672 30.382 Z M 118.172 23.082 C 118.719 23.082 119.212 22.885 119.652 22.492 C 120.092 22.099 120.312 21.549 120.312 20.842 C 120.312 20.269 120.159 19.735 119.852 19.242 C 119.545 18.749 118.985 18.502 118.172 18.502 L 114.812 18.502 L 114.812 23.082 L 118.172 23.082 Z M 157.768 29.882 C 156.781 29.375 156.018 28.655 155.478 27.722 C 154.938 26.789 154.668 25.702 154.668 24.462 L 154.668 15.782 L 157.828 15.782 L 157.828 24.462 C 157.828 25.315 158.011 25.999 158.378 26.512 C 158.745 27.025 159.185 27.389 159.698 27.602 C 160.211 27.815 160.721 27.922 161.228 27.922 C 161.721 27.922 162.225 27.815 162.738 27.602 C 163.251 27.389 163.688 27.025 164.048 26.512 C 164.408 25.999 164.588 25.315 164.588 24.462 L 164.588 15.782 L 167.748 15.782 L 167.748 24.462 C 167.748 25.702 167.481 26.789 166.948 27.722 C 166.415 28.655 165.655 29.375 164.668 29.882 C 163.681 30.389 162.535 30.642 161.228 30.642 C 159.908 30.642 158.755 30.389 157.768 29.882 L 157.768 29.882 Z M 185.416 30.382 L 182.276 30.382 L 182.276 15.302 L 192.356 24.222 L 192.356 15.782 L 195.516 15.782 L 195.516 30.842 L 185.416 22.062 L 185.416 30.382 L 185.416 30.382 Z M 220.864 30.382 L 210.024 30.382 L 210.024 15.762 L 213.204 15.762 L 213.204 27.642 L 220.864 27.642 L 220.864 30.382 Z M 237.152 21.762 L 244.152 21.762 L 244.152 24.522 L 237.152 24.522 L 237.152 27.642 L 245.072 27.642 L 245.072 30.382 L 233.992 30.382 L 233.992 15.762 L 245.072 15.762 L 245.072 18.502 L 237.152 18.502 L 237.152 21.762 Z M 265.3 15.302 L 273.32 30.382 L 269.86 30.382 L 268.7 28.142 L 261.88 28.142 L 260.76 30.382 L 257.28 30.382 L 265.3 15.302 Z M 267.18 25.442 L 265.3 21.622 L 263.44 25.442 L 267.18 25.442 Z M 288.528 27.252 C 289.475 27.632 290.341 27.822 291.128 27.822 C 291.955 27.822 292.611 27.662 293.098 27.342 C 293.585 27.022 293.828 26.642 293.828 26.202 C 293.828 25.842 293.685 25.549 293.398 25.322 C 293.111 25.095 292.748 24.925 292.308 24.812 C 291.868 24.699 291.288 24.575 290.568 24.442 C 289.608 24.282 288.728 24.075 287.928 23.822 C 287.128 23.569 286.401 23.129 285.748 22.502 C 285.095 21.875 284.768 21.029 284.768 19.962 C 284.768 18.389 285.345 17.259 286.498 16.572 C 287.651 15.885 289.008 15.542 290.568 15.542 C 291.768 15.542 292.811 15.705 293.698 16.032 C 294.585 16.359 295.468 16.849 296.348 17.502 L 294.588 19.902 C 293.935 19.435 293.255 19.069 292.548 18.802 C 291.841 18.535 291.141 18.402 290.448 18.402 C 289.835 18.402 289.261 18.512 288.728 18.732 C 288.195 18.952 287.928 19.322 287.928 19.842 C 287.928 20.162 288.065 20.419 288.338 20.612 C 288.611 20.805 288.911 20.945 289.238 21.032 C 289.565 21.119 290.095 21.242 290.828 21.402 L 291.548 21.542 C 292.655 21.755 293.571 21.992 294.298 22.252 C 295.025 22.512 295.655 22.949 296.188 23.562 C 296.721 24.175 296.988 25.029 296.988 26.122 C 296.988 27.602 296.465 28.729 295.418 29.502 C 294.371 30.275 292.955 30.662 291.168 30.662 C 288.555 30.662 286.355 29.902 284.568 28.382 L 286.248 25.962 C 286.821 26.442 287.581 26.872 288.528 27.252 L 288.528 27.252 Z M 323.716 30.382 L 320.576 30.382 L 320.576 24.702 L 313.716 24.702 L 313.716 30.382 L 310.576 30.382 L 310.576 15.762 L 313.716 15.762 L 313.716 21.962 L 320.576 21.962 L 320.576 15.762 L 323.716 15.762 L 323.716 30.382 Z M 341.364 21.762 L 348.364 21.762 L 348.364 24.522 L 341.364 24.522 L 341.364 27.642 L 349.284 27.642 L 349.284 30.382 L 338.204 30.382 L 338.204 15.762 L 349.284 15.762 L 349.284 18.502 L 341.364 18.502 L 341.364 21.762 Z M 363.432 15.762 L 369.472 15.762 C 371.645 15.762 373.425 16.375 374.812 17.602 C 375.559 18.255 376.125 19.045 376.512 19.972 C 376.899 20.899 377.092 21.929 377.092 23.062 C 377.092 24.169 376.892 25.199 376.492 26.152 C 376.092 27.105 375.532 27.909 374.812 28.562 C 374.145 29.149 373.355 29.599 372.442 29.912 C 371.529 30.225 370.539 30.382 369.472 30.382 L 363.432 30.382 L 363.432 15.762 L 363.432 15.762 Z M 369.472 27.642 C 370.725 27.642 371.775 27.315 372.622 26.662 C 373.469 26.009 373.892 24.815 373.892 23.082 C 373.892 21.349 373.465 20.155 372.612 19.502 C 371.759 18.849 370.712 18.522 369.472 18.522 L 366.592 18.522 L 366.592 27.642 L 369.472 27.642 Z M 392.69 24.532 C 392.363 24.845 391.973 25.002 391.52 25.002 C 391.067 25.002 390.68 24.845 390.36 24.532 C 390.04 24.219 389.88 23.849 389.88 23.422 C 389.88 22.982 390.04 22.605 390.36 22.292 C 390.68 21.979 391.067 21.822 391.52 21.822 C 391.973 21.822 392.363 21.979 392.69 22.292 C 393.017 22.605 393.18 22.982 393.18 23.422 C 393.18 23.849 393.017 24.219 392.69 24.532 L 392.69 24.532 Z M 392.69 30.072 C 392.363 30.385 391.973 30.542 391.52 30.542 C 391.067 30.542 390.68 30.385 390.36 30.072 C 390.04 29.759 389.88 29.382 389.88 28.942 C 389.88 28.502 390.04 28.125 390.36 27.812 C 390.68 27.499 391.067 27.342 391.52 27.342 C 391.973 27.342 392.363 27.502 392.69 27.822 C 393.017 28.142 393.18 28.515 393.18 28.942 C 393.18 29.382 393.017 29.759 392.69 30.072 L 392.69 30.072 Z M 426.816 21.762 L 433.816 21.762 L 433.816 24.522 L 426.816 24.522 L 426.816 27.642 L 434.736 27.642 L 434.736 30.382 L 423.656 30.382 L 423.656 15.762 L 434.736 15.762 L 434.736 18.502 L 426.816 18.502 L 426.816 21.762 Z M 447.444 15.782 L 451.424 15.782 L 455.204 20.822 L 458.984 15.782 L 462.924 15.782 L 457.184 23.142 L 462.824 30.382 L 458.864 30.382 L 455.204 25.522 L 451.544 30.382 L 447.564 30.382 L 453.224 23.142 L 447.444 15.782 Z M 481.892 18.502 L 481.892 30.382 L 478.712 30.382 L 478.712 18.502 L 474.452 18.502 L 474.452 15.762 L 486.132 15.762 L 486.132 18.502 L 481.892 18.502 Z M 502.42 21.762 L 509.42 21.762 L 509.42 24.522 L 502.42 24.522 L 502.42 27.642 L 510.34 27.642 L 510.34 30.382 L 499.26 30.382 L 499.26 15.762 L 510.34 15.762 L 510.34 18.502 L 502.42 18.502 L 502.42 21.762 Z M 527.628 30.382 L 524.488 30.382 L 524.488 15.302 L 534.568 24.222 L 534.568 15.782 L 537.728 15.782 L 537.728 30.842 L 527.628 22.062 L 527.628 30.382 Z M 555.556 27.252 C 556.503 27.632 557.369 27.822 558.156 27.822 C 558.983 27.822 559.639 27.662 560.126 27.342 C 560.613 27.022 560.856 26.642 560.856 26.202 C 560.856 25.842 560.713 25.549 560.426 25.322 C 560.139 25.095 559.776 24.925 559.336 24.812 C 558.896 24.699 558.316 24.575 557.596 24.442 C 556.636 24.282 555.756 24.075 554.956 23.822 C 554.156 23.569 553.429 23.129 552.776 22.502 C 552.123 21.875 551.796 21.029 551.796 19.962 C 551.796 18.389 552.373 17.259 553.526 16.572 C 554.679 15.885 556.036 15.542 557.596 15.542 C 558.796 15.542 559.839 15.705 560.726 16.032 C 561.613 16.359 562.496 16.849 563.376 17.502 L 561.616 19.902 C 560.963 19.435 560.283 19.069 559.576 18.802 C 558.869 18.535 558.169 18.402 557.476 18.402 C 556.863 18.402 556.289 18.512 555.756 18.732 C 555.223 18.952 554.956 19.322 554.956 19.842 C 554.956 20.162 555.093 20.419 555.366 20.612 C 555.639 20.805 555.939 20.945 556.266 21.032 C 556.593 21.119 557.123 21.242 557.856 21.402 L 558.576 21.542 C 559.683 21.755 560.599 21.992 561.326 22.252 C 562.053 22.512 562.683 22.949 563.216 23.562 C 563.749 24.175 564.016 25.029 564.016 26.122 C 564.016 27.602 563.493 28.729 562.446 29.502 C 561.399 30.275 559.983 30.662 558.196 30.662 C 555.583 30.662 553.383 29.902 551.596 28.382 L 553.276 25.962 C 553.849 26.442 554.609 26.872 555.556 27.252 Z M 577.964 30.382 L 577.964 15.762 L 581.124 15.762 L 581.124 30.382 L 577.964 30.382 Z M 606.202 21.602 C 605.862 22.135 605.419 22.515 604.872 22.742 C 605.539 22.969 606.112 23.402 606.592 24.042 C 607.072 24.682 607.312 25.382 607.312 26.142 C 607.312 27.649 606.832 28.732 605.872 29.392 C 604.912 30.052 603.685 30.382 602.192 30.382 L 595.872 30.382 L 595.872 15.762 L 601.952 15.762 C 605.125 15.762 606.712 17.115 606.712 19.822 C 606.712 20.475 606.542 21.069 606.202 21.602 Z M 602.012 21.562 C 602.532 21.562 602.915 21.402 603.162 21.082 C 603.409 20.762 603.532 20.382 603.532 19.942 C 603.532 19.555 603.385 19.219 603.092 18.932 C 602.799 18.645 602.445 18.502 602.032 18.502 L 599.052 18.502 L 599.052 21.562 L 602.012 21.562 Z M 603.632 27.162 C 603.979 26.842 604.152 26.449 604.152 25.982 C 604.152 25.515 603.979 25.122 603.632 24.802 C 603.285 24.482 602.785 24.322 602.132 24.322 L 599.052 24.322 L 599.052 27.642 L 602.192 27.642 C 602.805 27.642 603.285 27.482 603.632 27.162 Z M 631.98 30.382 L 621.14 30.382 L 621.14 15.762 L 624.32 15.762 L 624.32 27.642 L 631.98 27.642 L 631.98 30.382 L 631.98 30.382 Z M 648.268 21.762 L 655.268 21.762 L 655.268 24.522 L 648.268 24.522 L 648.268 27.642 L 656.188 27.642 L 656.188 30.382 L 645.108 30.382 L 645.108 15.762 L 656.188 15.762 L 656.188 18.502 L 648.268 18.502 L 648.268 21.762 Z M 695.364 28.862 C 694.764 29.355 694.254 29.722 693.834 29.962 C 693.414 30.202 693.014 30.365 692.634 30.452 C 692.254 30.539 691.784 30.595 691.224 30.622 C 690.371 30.649 689.584 30.489 688.864 30.142 C 688.144 29.795 687.571 29.302 687.144 28.662 C 686.717 28.022 686.504 27.309 686.504 26.522 C 686.504 25.855 686.657 25.252 686.964 24.712 C 687.271 24.172 687.717 23.662 688.304 23.182 C 688.291 23.195 688.484 23.055 688.884 22.762 L 689.124 22.602 C 689.124 22.602 689.197 22.549 689.344 22.442 C 688.584 21.495 688.204 20.475 688.204 19.382 C 688.204 19.169 688.211 19.009 688.224 18.902 C 688.317 18.355 688.517 17.842 688.824 17.362 C 689.131 16.882 689.517 16.489 689.984 16.182 C 690.317 15.969 690.691 15.805 691.104 15.692 C 691.517 15.579 691.931 15.522 692.344 15.522 C 692.717 15.522 693.064 15.562 693.384 15.642 C 693.957 15.789 694.474 16.052 694.934 16.432 C 695.394 16.812 695.751 17.262 696.004 17.782 C 696.257 18.275 696.384 18.789 696.384 19.322 C 696.384 19.935 696.237 20.515 695.944 21.062 C 695.744 21.449 695.464 21.795 695.104 22.102 C 694.744 22.409 694.297 22.715 693.764 23.022 L 695.384 24.622 C 695.757 24.102 696.067 23.612 696.314 23.152 C 696.561 22.692 696.684 22.435 696.684 22.382 L 699.424 23.702 C 699.104 24.275 698.801 24.779 698.514 25.212 C 698.227 25.645 697.871 26.135 697.444 26.682 L 697.884 27.122 C 698.831 28.069 699.424 28.675 699.664 28.942 L 697.284 30.722 L 695.364 28.862 Z M 691.294 20.152 C 691.434 20.479 691.624 20.782 691.864 21.062 C 692.917 20.462 693.444 19.782 693.444 19.022 C 693.444 18.742 693.331 18.515 693.104 18.342 C 692.877 18.169 692.617 18.082 692.324 18.082 C 692.044 18.082 691.791 18.175 691.564 18.362 C 691.337 18.549 691.197 18.829 691.144 19.202 C 691.104 19.509 691.154 19.825 691.294 20.152 L 691.294 20.152 Z M 690.184 25.042 C 690.051 25.162 689.914 25.335 689.774 25.562 C 689.634 25.789 689.564 26.069 689.564 26.402 C 689.564 26.522 689.571 26.609 689.584 26.662 C 689.611 27.009 689.781 27.302 690.094 27.542 C 690.407 27.782 690.777 27.902 691.204 27.902 C 691.684 27.902 692.094 27.812 692.434 27.632 C 692.774 27.452 693.111 27.215 693.444 26.922 L 691.004 24.502 C 690.737 24.649 690.464 24.829 690.184 25.042 L 690.184 25.042 Z M 733.38 29.642 C 732.18 28.962 731.227 28.039 730.52 26.872 C 729.813 25.705 729.46 24.435 729.46 23.062 C 729.46 21.702 729.813 20.439 730.52 19.272 C 731.227 18.105 732.18 17.182 733.38 16.502 C 734.58 15.822 735.893 15.482 737.32 15.482 C 738.747 15.482 740.067 15.822 741.28 16.502 C 742.493 17.182 743.453 18.105 744.16 19.272 C 744.867 20.439 745.22 21.702 745.22 23.062 C 745.22 24.435 744.867 25.705 744.16 26.872 C 743.453 28.039 742.493 28.962 741.28 29.642 C 740.067 30.322 738.747 30.662 737.32 30.662 C 735.893 30.662 734.58 30.322 733.38 29.642 L 733.38 29.642 Z M 734.96 19.012 C 734.24 19.445 733.667 20.022 733.24 20.742 C 732.813 21.462 732.6 22.235 732.6 23.062 C 732.6 23.889 732.813 24.665 733.24 25.392 C 733.667 26.119 734.24 26.702 734.96 27.142 C 735.68 27.582 736.467 27.802 737.32 27.802 C 738.173 27.802 738.963 27.582 739.69 27.142 C 740.417 26.702 740.99 26.119 741.41 25.392 C 741.83 24.665 742.04 23.889 742.04 23.062 C 742.04 22.235 741.83 21.462 741.41 20.742 C 740.99 20.022 740.417 19.445 739.69 19.012 C 738.963 18.579 738.173 18.362 737.32 18.362 C 736.467 18.362 735.68 18.579 734.96 19.012 Z M 768.078 16.462 C 768.965 16.929 769.648 17.559 770.128 18.352 C 770.608 19.145 770.848 20.029 770.848 21.002 C 770.848 21.975 770.625 22.849 770.178 23.622 C 769.731 24.395 769.061 25.005 768.168 25.452 C 767.275 25.899 766.195 26.122 764.928 26.122 L 762.168 26.122 L 762.168 30.382 L 759.008 30.382 L 759.008 15.762 L 764.948 15.762 C 766.148 15.762 767.191 15.995 768.078 16.462 L 768.078 16.462 Z M 767.088 22.682 C 767.475 22.215 767.668 21.655 767.668 21.002 C 767.668 20.575 767.568 20.172 767.368 19.792 C 767.168 19.412 766.871 19.102 766.478 18.862 C 766.085 18.622 765.615 18.502 765.068 18.502 L 762.168 18.502 L 762.168 23.382 L 765.388 23.382 C 766.135 23.382 766.701 23.149 767.088 22.682 L 767.088 22.682 Z M 787.076 21.762 L 794.076 21.762 L 794.076 24.522 L 787.076 24.522 L 787.076 27.642 L 794.996 27.642 L 794.996 30.382 L 783.916 30.382 L 783.916 15.762 L 794.996 15.762 L 794.996 18.502 L 787.076 18.502 L 787.076 21.762 Z M 812.284 30.382 L 809.144 30.382 L 809.144 15.302 L 819.224 24.222 L 819.224 15.782 L 822.384 15.782 L 822.384 30.842 L 812.284 22.062 L 812.284 30.382 Z M 836.312 25.982 L 836.312 23.262 L 842.672 23.262 L 842.672 25.982 L 836.312 25.982 L 836.312 25.982 Z M 859.92 27.252 C 860.867 27.632 861.733 27.822 862.52 27.822 C 863.347 27.822 864.003 27.662 864.49 27.342 C 864.977 27.022 865.22 26.642 865.22 26.202 C 865.22 25.842 865.077 25.549 864.79 25.322 C 864.503 25.095 864.14 24.925 863.7 24.812 C 863.26 24.699 862.68 24.575 861.96 24.442 C 861 24.282 860.12 24.075 859.32 23.822 C 858.52 23.569 857.793 23.129 857.14 22.502 C 856.487 21.875 856.16 21.029 856.16 19.962 C 856.16 18.389 856.737 17.259 857.89 16.572 C 859.043 15.885 860.4 15.542 861.96 15.542 C 863.16 15.542 864.203 15.705 865.09 16.032 C 865.977 16.359 866.86 16.849 867.74 17.502 L 865.98 19.902 C 865.327 19.435 864.647 19.069 863.94 18.802 C 863.233 18.535 862.533 18.402 861.84 18.402 C 861.227 18.402 860.653 18.512 860.12 18.732 C 859.587 18.952 859.32 19.322 859.32 19.842 C 859.32 20.162 859.457 20.419 859.73 20.612 C 860.003 20.805 860.303 20.945 860.63 21.032 C 860.957 21.119 861.487 21.242 862.22 21.402 L 862.94 21.542 C 864.047 21.755 864.963 21.992 865.69 22.252 C 866.417 22.512 867.047 22.949 867.58 23.562 C 868.113 24.175 868.38 25.029 868.38 26.122 C 868.38 27.602 867.857 28.729 866.81 29.502 C 865.763 30.275 864.347 30.662 862.56 30.662 C 859.947 30.662 857.747 29.902 855.96 28.382 L 857.64 25.962 C 858.213 26.442 858.973 26.872 859.92 27.252 Z M 885.148 29.642 C 883.948 28.962 882.995 28.039 882.288 26.872 C 881.581 25.705 881.228 24.435 881.228 23.062 C 881.228 21.702 881.581 20.439 882.288 19.272 C 882.995 18.105 883.948 17.182 885.148 16.502 C 886.348 15.822 887.661 15.482 889.088 15.482 C 890.515 15.482 891.835 15.822 893.048 16.502 C 894.261 17.182 895.221 18.105 895.928 19.272 C 896.635 20.439 896.988 21.702 896.988 23.062 C 896.988 24.435 896.635 25.705 895.928 26.872 C 895.221 28.039 894.261 28.962 893.048 29.642 C 891.835 30.322 890.515 30.662 889.088 30.662 C 887.661 30.662 886.348 30.322 885.148 29.642 L 885.148 29.642 Z M 886.728 19.012 C 886.008 19.445 885.435 20.022 885.008 20.742 C 884.581 21.462 884.368 22.235 884.368 23.062 C 884.368 23.889 884.581 24.665 885.008 25.392 C 885.435 26.119 886.008 26.702 886.728 27.142 C 887.448 27.582 888.235 27.802 889.088 27.802 C 889.941 27.802 890.731 27.582 891.458 27.142 C 892.185 26.702 892.758 26.119 893.178 25.392 C 893.598 24.665 893.808 23.889 893.808 23.062 C 893.808 22.235 893.598 21.462 893.178 20.742 C 892.758 20.022 892.185 19.445 891.458 19.012 C 890.731 18.579 889.941 18.362 889.088 18.362 C 888.235 18.362 887.448 18.579 886.728 19.012 Z M 913.876 29.882 C 912.889 29.375 912.126 28.655 911.586 27.722 C 911.046 26.789 910.776 25.702 910.776 24.462 L 910.776 15.782 L 913.936 15.782 L 913.936 24.462 C 913.936 25.315 914.119 25.999 914.486 26.512 C 914.853 27.025 915.293 27.389 915.806 27.602 C 916.319 27.815 916.829 27.922 917.336 27.922 C 917.829 27.922 918.333 27.815 918.846 27.602 C 919.359 27.389 919.796 27.025 920.156 26.512 C 920.516 25.999 920.696 25.315 920.696 24.462 L 920.696 15.782 L 923.856 15.782 L 923.856 24.462 C 923.856 25.702 923.589 26.789 923.056 27.722 C 922.523 28.655 921.763 29.375 920.776 29.882 C 919.789 30.389 918.643 30.642 917.336 30.642 C 916.016 30.642 914.863 30.389 913.876 29.882 L 913.876 29.882 Z M 938.384 30.382 L 938.384 15.762 L 944.884 15.762 C 945.924 15.762 946.844 15.975 947.644 16.402 C 948.444 16.829 949.064 17.429 949.504 18.202 C 949.944 18.975 950.164 19.855 950.164 20.842 C 950.164 21.895 949.897 22.835 949.364 23.662 C 948.831 24.489 948.104 25.095 947.184 25.482 C 948.131 26.682 949.391 28.315 950.964 30.382 L 947.184 30.382 C 946.331 29.315 945.164 27.795 943.684 25.822 L 941.524 25.822 L 941.524 30.382 L 938.384 30.382 L 938.384 30.382 Z M 944.884 23.082 C 945.431 23.082 945.924 22.885 946.364 22.492 C 946.804 22.099 947.024 21.549 947.024 20.842 C 947.024 20.269 946.871 19.735 946.564 19.242 C 946.257 18.749 945.697 18.502 944.884 18.502 L 941.524 18.502 L 941.524 23.082 L 944.884 23.082 Z M 975.262 29.562 C 974.029 30.295 972.685 30.662 971.232 30.662 C 969.805 30.662 968.489 30.322 967.282 29.642 C 966.075 28.962 965.119 28.042 964.412 26.882 C 963.705 25.722 963.352 24.455 963.352 23.082 C 963.352 21.722 963.705 20.462 964.412 19.302 C 965.119 18.142 966.075 17.222 967.282 16.542 C 968.489 15.862 969.805 15.522 971.232 15.522 C 972.672 15.522 974.012 15.885 975.252 16.612 C 976.492 17.339 977.465 18.309 978.172 19.522 L 975.232 20.662 C 974.765 19.995 974.175 19.449 973.462 19.022 C 972.749 18.595 972.005 18.382 971.232 18.382 C 970.379 18.382 969.592 18.599 968.872 19.032 C 968.152 19.465 967.582 20.042 967.162 20.762 C 966.742 21.482 966.532 22.255 966.532 23.082 C 966.532 23.909 966.742 24.685 967.162 25.412 C 967.582 26.139 968.152 26.719 968.872 27.152 C 969.592 27.585 970.379 27.802 971.232 27.802 C 972.005 27.802 972.749 27.585 973.462 27.152 C 974.175 26.719 974.765 26.162 975.232 25.482 L 978.172 26.622 C 977.465 27.849 976.495 28.829 975.262 29.562 Z M 994.7 21.762 L 1001.7 21.762 L 1001.7 24.522 L 994.7 24.522 L 994.7 27.642 L 1002.62 27.642 L 1002.62 30.382 L 991.54 30.382 L 991.54 15.762 L 1002.62 15.762 L 1002.62 18.502 L 994.7 18.502 L 994.7 21.762 Z M 1018.498 30.072 C 1018.171 30.385 1017.781 30.542 1017.328 30.542 C 1016.875 30.542 1016.488 30.385 1016.168 30.072 C 1015.848 29.759 1015.688 29.382 1015.688 28.942 C 1015.688 28.515 1015.848 28.142 1016.168 27.822 C 1016.488 27.502 1016.875 27.342 1017.328 27.342 C 1017.781 27.342 1018.171 27.502 1018.498 27.822 C 1018.825 28.142 1018.988 28.515 1018.988 28.942 C 1018.988 29.382 1018.825 29.759 1018.498 30.072 Z"/>
    </g>
  </g>
</svg>